<?xml version="1.0" encoding="UTF-8"?>
<svg id="Layer_2" data-name="Layer 2" xmlns="http://www.w3.org/2000/svg" viewBox="0 0 500.09 75.94">
  <defs>
    <style>
      .cls-1 {
        fill: #f9a64a;
      }

      .cls-2 {
        fill: #2f296b;
      }

      .cls-3 {
        fill: #fff;
      }
    </style>
  </defs>
  <g id="_图层_1" data-name="图层 1">
    <g>
      <path class="cls-1" d="M111.01,48.3c4.08-4.57,7.28-19.71,8.31-25.09.21-1.11,1.19-1.92,2.32-1.92h6.75c-2.96,21.12-12.26,36.97-17.38,36.97-4.57,0-15.26-16.98-17.38-36.97h6.97c1.15,0,2.13.82,2.33,1.95.96,5.44,3.96,20.68,8.08,25.06"/>
      <path class="cls-1" d="M156.76,57.95h-20.99c-1.74,0-3.15-1.41-3.15-3.15v-30.36c0-1.74,1.41-3.15,3.15-3.15h20.14v6.72h-15.04v8.15h14.14v6.7h-14.14v8.38h15.88v6.7Z"/>
      <path class="cls-1" d="M186.22,21.3v23.82l-14.85-23.82h-5.86c-1.67,0-3.03,1.36-3.03,3.03v33.62h7.79v-24.7l15.41,24.7h5.3c1.67,0,3.03-1.36,3.03-3.03V21.3h-7.79Z"/>
      <path class="cls-1" d="M230.69,42.07c0,11.01-5.13,16.51-15.39,16.51s-14.93-5.38-14.93-16.13v-18.58c0-1.43,1.15-2.58,2.58-2.58h5.7v21.26c0,5.93,2.32,8.89,6.95,8.89s6.82-2.86,6.82-8.59v-21.57h5.67c1.42,0,2.58,1.15,2.58,2.58v18.2Z"/>
      <path class="cls-1" d="M235.82,53.99v-5.63c1.48,1.24,3.09,2.18,4.83,2.8,1.74.62,3.49.93,5.26.93,1.04,0,1.95-.09,2.72-.28.77-.19,1.42-.45,1.94-.78s.91-.72,1.16-1.18c.26-.45.38-.94.38-1.47,0-.72-.2-1.35-.61-1.92-.41-.56-.97-1.08-1.67-1.56-.71-.48-1.55-.94-2.52-1.38-.97-.44-2.02-.89-3.14-1.35-2.86-1.19-5-2.65-6.4-4.37-1.41-1.72-2.11-3.8-2.11-6.24,0-1.91.38-3.55,1.15-4.92s1.81-2.5,3.13-3.39c1.32-.89,2.85-1.54,4.59-1.95,1.74-.42,3.58-.63,5.52-.63s3.6.12,5.07.34c.38.06.75.13,1.12.2,1.73.36,2.96,1.9,2.96,3.67v4.83c-.61-.43-1.28-.8-2.01-1.13-.72-.32-1.47-.59-2.24-.8-.77-.21-1.53-.37-2.29-.47-.76-.1-1.48-.15-2.16-.15-.94,0-1.79.09-2.56.27-.77.18-1.41.43-1.94.75-.53.32-.94.71-1.23,1.16-.29.45-.43.96-.43,1.52,0,.61.16,1.16.49,1.65.32.49.78.95,1.38,1.38.6.44,1.32.86,2.17,1.28.85.42,1.81.85,2.89,1.29,1.47.61,2.78,1.26,3.95,1.95,1.17.69,2.17,1.47,3,2.34.83.87,1.47,1.86,1.92,2.98.44,1.12.66,2.41.66,3.9,0,2.04-.39,3.76-1.16,5.15-.78,1.39-1.83,2.51-3.16,3.37-1.33.86-2.87,1.48-4.64,1.85-1.76.37-3.62.56-5.58.56s-3.92-.17-5.74-.51c-.72-.14-1.4-.3-2.04-.49-1.59-.47-2.67-1.94-2.67-3.6"/>
      <path class="cls-3" d="M308.66,57.92h-8.14v-21.9c0-2.36.1-4.98.31-7.84h-.2c-.43,2.25-.81,3.86-1.15,4.85l-8.57,24.89h-6.74l-8.73-24.63c-.24-.66-.62-2.36-1.15-5.1h-.23c.22,3.61.33,6.77.33,9.5v20.24h-7.43V25.46c0-2.28,1.85-4.14,4.14-4.14h7.93l7.48,21.7c.59,1.73,1.03,3.48,1.3,5.23h.15c.46-2.02.95-3.78,1.46-5.28l7.48-21.64h7.63c2.29,0,4.14,1.85,4.14,4.14v32.47Z"/>
      <path class="cls-3" d="M336.93,57.92h-19.91c-1.13,0-2.04-.91-2.04-2.04V23.36c0-1.13.91-2.04,2.04-2.04h19.07v6.71h-12.86v8.14h11.97v6.69h-11.97v8.37h13.71v6.69Z"/>
      <path class="cls-3" d="M342.81,55.12v-31.01c0-1.54,1.25-2.8,2.8-2.8h10.17c13,0,19.5,5.95,19.5,17.84,0,5.7-1.77,10.25-5.32,13.66-3.55,3.4-8.27,5.1-14.18,5.1h-10.17c-1.54,0-2.8-1.25-2.8-2.8M351.05,28.03v23.2h4.08c3.57,0,6.38-1.07,8.41-3.22,2.03-2.14,3.05-5.06,3.05-8.76,0-3.49-1.01-6.23-3.03-8.23-2.01-2-4.84-3-8.49-3h-4.03Z"/>
      <path class="cls-3" d="M402.91,28.03h-8.3v29.89h-8.27v-29.89h-8.25c-1.18,0-2.14-.96-2.14-2.14v-4.57h29.1v4.57c0,1.18-.96,2.14-2.14,2.14"/>
      <path class="cls-3" d="M430.93,57.92h-19.5c-1.35,0-2.45-1.1-2.45-2.45v-31.7c0-1.35,1.1-2.45,2.45-2.45h18.66v6.71h-12.87v8.14h11.97v6.69h-11.97v8.37h13.71v6.69Z"/>
      <path class="cls-3" d="M462.03,56.62c-2.67,1.29-6.16,1.94-10.46,1.94-5.61,0-10.03-1.65-13.25-4.95-3.22-3.3-4.83-7.7-4.83-13.2,0-5.85,1.81-10.6,5.42-14.24,3.62-3.64,8.31-5.46,14.08-5.46,3.58,0,6.59.45,9.03,1.35v7.94c-2.45-1.46-5.24-2.2-8.37-2.2-3.44,0-6.21,1.08-8.32,3.24-2.11,2.16-3.16,5.09-3.16,8.78s1,6.36,2.99,8.46c1.99,2.1,4.67,3.15,8.04,3.15s6.16-.78,8.83-2.35v7.53Z"/>
      <path class="cls-3" d="M500.09,57.92h-5.79c-1.37,0-2.48-1.11-2.48-2.48v-12.42h-15.16v12.42c0,1.37-1.11,2.48-2.48,2.48h-5.76V21.32h5.76c1.37,0,2.48,1.11,2.48,2.48v12.12h15.16v-12.12c0-1.37,1.11-2.48,2.48-2.48h5.79v36.6Z"/>
      <path class="cls-3" d="M75.94,37.97c0,20.97-17,37.97-37.97,37.97S0,58.94,0,37.97C0,17,17,0,37.97,0s37.97,17,37.97,37.97"/>
      <g>
        <path class="cls-1" d="M53.85,37.37c-.77.09-17.64,2.33-17.64,2.33v3.89c0,1.51.97,2.16,2.16,2.16l11.37-1.41v6.29c0,1.04-.84,1.88-1.88,1.88h-17.19c-1.36,0-2.13-.96-2.13-.96v5.06c0,1.08.87,1.95,1.95,1.95h29.87c1.35,0,2.45-1.09,2.45-2.45v-3.61h-5.5v-11.93c0-2-1.37-3.47-3.46-3.22"/>
        <g>
          <path class="cls-2" d="M40.9,26.03h-20.76c-1.62,0-2.2.7-2.2,2.23v19.15c0,5.98-.97,8.49-2.15,11.18h5.77c1.34,0,2-.57,2.38-1.4.77-1.71,1.57-4.33,1.57-9.78v-12.4c0-1.19.97-2.16,2.16-2.16h15.25v-4.79c0-1.12-.91-2.03-2.02-2.03Z"/>
          <path class="cls-2" d="M50.21,13.16h-8.8v-1.3c0-.96-.77-1.73-1.73-1.73h-5.84v3.03h-15.9v5.1c0,1.37,1.11,2.47,2.47,2.47h27.01c1.27,0,2.31,1.03,2.31,2.31v12.15h1.59c2.85,0,5.98-1.18,5.98-4.69v-11c0-4.48-3.13-6.34-7.1-6.34Z"/>
        </g>
      </g>
    </g>
  </g>
</svg>